<?xml version="1.0" encoding="UTF-8"?>
<svg xmlns="http://www.w3.org/2000/svg" xmlns:xlink="http://www.w3.org/1999/xlink" width="500px" height="px" viewBox="0 0 500 500" version="1.1">
<g id="surface1">
<path style=" stroke:none;fill-rule:nonzero;fill:rgb(20.392157%,30.588235%,36.470588%);fill-opacity:1;" d="M 500 250 C 500 388.070312 388.070312 500 250 500 C 111.929688 500 0 388.070312 0 250 C 0 111.929688 111.929688 0 250 0 C 388.070312 0 500 111.929688 500 250 Z M 500 250 "/>
<path style=" stroke:none;fill-rule:nonzero;fill:rgb(92.941176%,78.823529%,17.254902%);fill-opacity:1;" d="M 330.152344 267.640625 L 330.152344 251.675781 L 319.480469 251.675781 L 319.480469 267.640625 C 319.480469 305.839844 287.859375 336.8125 249.652344 336.8125 L 249.621094 336.8125 C 211.417969 336.8125 180.449219 305.835938 180.449219 267.640625 L 180.449219 251.675781 L 169.824219 251.675781 L 169.824219 267.640625 C 169.824219 307.855469 199.640625 340.789062 238.324219 346.339844 L 238.324219 375.925781 L 195.820312 375.925781 C 186.644531 375.925781 179.226562 383.359375 179.226562 392.527344 C 179.226562 401.691406 186.644531 409.121094 195.820312 409.121094 L 304.136719 409.121094 C 313.304688 409.121094 320.730469 401.691406 320.730469 392.527344 C 320.730469 383.359375 313.304688 375.925781 304.136719 375.925781 L 259.621094 375.925781 L 259.621094 346.476562 C 298.941406 341.511719 330.152344 308.320312 330.152344 267.640625 Z M 330.152344 267.640625 "/>
<path style=" stroke:none;fill-rule:nonzero;fill:rgb(92.941176%,78.823529%,17.254902%);fill-opacity:1;" d="M 249.636719 90.851562 C 217.292969 90.851562 191.085938 117.074219 191.085938 149.394531 L 191.085938 241.023438 L 308.859375 241.023438 L 308.859375 149.394531 C 308.859375 117.074219 281.980469 90.851562 249.636719 90.851562 Z M 271.347656 112.386719 C 274.292969 112.386719 276.707031 114.773438 276.707031 117.730469 C 276.707031 120.671875 274.292969 123.074219 271.347656 123.074219 C 268.410156 123.074219 266.003906 120.671875 266.003906 117.730469 C 266.003906 114.773438 268.40625 112.386719 271.347656 112.386719 Z M 249.976562 112.386719 C 252.929688 112.386719 255.3125 114.773438 255.3125 117.730469 C 255.3125 120.671875 252.929688 123.074219 249.976562 123.074219 C 247 123.074219 244.640625 120.671875 244.640625 117.730469 C 244.640625 114.773438 247 112.386719 249.976562 112.386719 Z M 228.605469 112.386719 C 231.546875 112.386719 233.949219 114.773438 233.949219 117.730469 C 233.949219 120.671875 231.554688 123.074219 228.605469 123.074219 C 225.65625 123.074219 223.253906 120.671875 223.253906 117.730469 C 223.25 114.773438 225.65625 112.386719 228.605469 112.386719 Z M 207.21875 229.960938 C 204.261719 229.960938 201.871094 227.578125 201.871094 224.617188 C 201.871094 221.675781 204.261719 219.273438 207.21875 219.273438 C 210.179688 219.273438 212.566406 221.675781 212.566406 224.617188 C 212.566406 227.578125 210.179688 229.960938 207.21875 229.960938 Z M 207.21875 208.578125 C 204.261719 208.578125 201.871094 206.195312 201.871094 203.242188 C 201.871094 200.285156 204.261719 197.898438 207.21875 197.898438 C 210.179688 197.898438 212.566406 200.285156 212.566406 203.242188 C 212.566406 206.195312 210.179688 208.578125 207.21875 208.578125 Z M 207.21875 187.203125 C 204.261719 187.203125 201.871094 184.808594 201.871094 181.863281 C 201.871094 178.898438 204.261719 176.519531 207.21875 176.519531 C 210.179688 176.519531 212.566406 178.902344 212.566406 181.863281 C 212.566406 184.808594 210.179688 187.203125 207.21875 187.203125 Z M 207.21875 165.828125 C 204.261719 165.828125 201.871094 163.445312 201.871094 160.480469 C 201.871094 157.53125 204.261719 155.136719 207.21875 155.136719 C 210.179688 155.136719 212.566406 157.53125 212.566406 160.480469 C 212.566406 163.445312 210.179688 165.828125 207.21875 165.828125 Z M 217.914062 144.445312 C 214.945312 144.445312 212.566406 142.0625 212.566406 139.101562 C 212.566406 136.15625 214.949219 133.761719 217.914062 133.761719 C 220.851562 133.761719 223.25 136.152344 223.25 139.101562 C 223.25 142.066406 220.855469 144.445312 217.914062 144.445312 Z M 228.605469 229.960938 C 225.660156 229.960938 223.253906 227.578125 223.253906 224.617188 C 223.253906 221.675781 225.660156 219.273438 228.605469 219.273438 C 231.546875 219.273438 233.949219 221.675781 233.949219 224.617188 C 233.945312 227.578125 231.546875 229.960938 228.605469 229.960938 Z M 228.605469 208.578125 C 225.660156 208.578125 223.253906 206.195312 223.253906 203.242188 C 223.253906 200.285156 225.660156 197.898438 228.605469 197.898438 C 231.546875 197.898438 233.949219 200.285156 233.949219 203.242188 C 233.945312 206.195312 231.546875 208.578125 228.605469 208.578125 Z M 228.605469 187.203125 C 225.660156 187.203125 223.253906 184.808594 223.253906 181.863281 C 223.253906 178.898438 225.660156 176.519531 228.605469 176.519531 C 231.546875 176.519531 233.949219 178.902344 233.949219 181.863281 C 233.945312 184.808594 231.546875 187.203125 228.605469 187.203125 Z M 228.605469 165.828125 C 225.660156 165.828125 223.253906 163.445312 223.253906 160.480469 C 223.253906 157.53125 225.660156 155.136719 228.605469 155.136719 C 231.546875 155.136719 233.949219 157.53125 233.949219 160.480469 C 233.945312 163.445312 231.546875 165.828125 228.605469 165.828125 Z M 239.28125 144.445312 C 236.335938 144.445312 233.945312 142.0625 233.945312 139.101562 C 233.945312 136.15625 236.332031 133.761719 239.28125 133.761719 C 242.234375 133.761719 244.640625 136.152344 244.640625 139.101562 C 244.640625 142.066406 242.234375 144.445312 239.28125 144.445312 Z M 249.976562 229.960938 C 247 229.960938 244.640625 227.578125 244.640625 224.617188 C 244.640625 221.675781 247 219.273438 249.976562 219.273438 C 252.929688 219.273438 255.3125 221.675781 255.3125 224.617188 C 255.308594 227.578125 252.929688 229.960938 249.976562 229.960938 Z M 249.976562 208.578125 C 247 208.578125 244.640625 206.195312 244.640625 203.242188 C 244.640625 200.285156 247 197.898438 249.976562 197.898438 C 252.929688 197.898438 255.3125 200.285156 255.3125 203.242188 C 255.308594 206.195312 252.929688 208.578125 249.976562 208.578125 Z M 249.976562 187.203125 C 247 187.203125 244.640625 184.808594 244.640625 181.863281 C 244.640625 178.898438 247 176.519531 249.976562 176.519531 C 252.929688 176.519531 255.3125 178.902344 255.3125 181.863281 C 255.308594 184.808594 252.929688 187.203125 249.976562 187.203125 Z M 249.976562 165.828125 C 247 165.828125 244.640625 163.445312 244.640625 160.480469 C 244.640625 157.53125 247 155.136719 249.976562 155.136719 C 252.929688 155.136719 255.3125 157.53125 255.3125 160.480469 C 255.308594 163.445312 252.929688 165.828125 249.976562 165.828125 Z M 260.667969 144.445312 C 257.714844 144.445312 255.3125 142.0625 255.3125 139.101562 C 255.3125 136.15625 257.714844 133.761719 260.667969 133.761719 C 263.621094 133.761719 266.007812 136.152344 266.007812 139.101562 C 266.003906 142.066406 263.621094 144.445312 260.667969 144.445312 Z M 271.347656 229.960938 C 268.410156 229.960938 266.003906 227.578125 266.003906 224.617188 C 266.003906 221.675781 268.40625 219.273438 271.347656 219.273438 C 274.292969 219.273438 276.707031 221.675781 276.707031 224.617188 C 276.707031 227.578125 274.292969 229.960938 271.347656 229.960938 Z M 271.347656 208.578125 C 268.410156 208.578125 266.003906 206.195312 266.003906 203.242188 C 266.003906 200.285156 268.40625 197.898438 271.347656 197.898438 C 274.292969 197.898438 276.707031 200.285156 276.707031 203.242188 C 276.707031 206.195312 274.292969 208.578125 271.347656 208.578125 Z M 271.347656 187.203125 C 268.410156 187.203125 266.003906 184.808594 266.003906 181.863281 C 266.003906 178.898438 268.40625 176.519531 271.347656 176.519531 C 274.292969 176.519531 276.707031 178.902344 276.707031 181.863281 C 276.707031 184.808594 274.292969 187.203125 271.347656 187.203125 Z M 271.347656 165.828125 C 268.410156 165.828125 266.003906 163.445312 266.003906 160.480469 C 266.003906 157.53125 268.40625 155.136719 271.347656 155.136719 C 274.292969 155.136719 276.707031 157.53125 276.707031 160.480469 C 276.707031 163.445312 274.292969 165.828125 271.347656 165.828125 Z M 282.042969 144.445312 C 279.089844 144.445312 276.707031 142.0625 276.707031 139.101562 C 276.707031 136.15625 279.089844 133.761719 282.042969 133.761719 C 284.996094 133.761719 287.390625 136.152344 287.390625 139.101562 C 287.390625 142.066406 284.996094 144.445312 282.042969 144.445312 Z M 292.738281 229.960938 C 289.792969 229.960938 287.390625 227.578125 287.390625 224.617188 C 287.390625 221.675781 289.789062 219.273438 292.738281 219.273438 C 295.6875 219.273438 298.082031 221.675781 298.082031 224.617188 C 298.078125 227.578125 295.6875 229.960938 292.738281 229.960938 Z M 292.738281 208.578125 C 289.792969 208.578125 287.390625 206.195312 287.390625 203.242188 C 287.390625 200.285156 289.789062 197.898438 292.738281 197.898438 C 295.6875 197.898438 298.082031 200.285156 298.082031 203.242188 C 298.078125 206.195312 295.6875 208.578125 292.738281 208.578125 Z M 292.738281 187.203125 C 289.792969 187.203125 287.390625 184.808594 287.390625 181.863281 C 287.390625 178.898438 289.789062 176.519531 292.738281 176.519531 C 295.6875 176.519531 298.082031 178.902344 298.082031 181.863281 C 298.078125 184.808594 295.6875 187.203125 292.738281 187.203125 Z M 292.738281 165.828125 C 289.792969 165.828125 287.390625 163.445312 287.390625 160.480469 C 287.390625 157.53125 289.789062 155.136719 292.738281 155.136719 C 295.6875 155.136719 298.082031 157.53125 298.082031 160.480469 C 298.078125 163.445312 295.6875 165.828125 292.738281 165.828125 Z M 292.738281 165.828125 "/>
<path style=" stroke:none;fill-rule:nonzero;fill:rgb(92.941176%,78.823529%,17.254902%);fill-opacity:1;" d="M 249.636719 325.511719 C 281.980469 325.511719 308.859375 299.289062 308.859375 266.96875 L 308.859375 251.679688 L 191.085938 251.679688 L 191.085938 266.96875 C 191.085938 299.292969 217.289062 325.511719 249.636719 325.511719 Z M 249.636719 325.511719 "/>
</g>
</svg>
